<svg width="1102" height="534" viewBox="0 0 1102 534" fill="none" xmlns="http://www.w3.org/2000/svg">
<path d="M0.0259357 200.93C0.0259357 172.01 -0.0440643 143.09 0.0459357 114.17C0.145936 85.4899 7.59594 59.3299 26.9759 37.3999C47.3059 14.3999 72.9359 1.03986 103.486 0.529863C161.076 -0.430137 218.696 0.249863 276.316 0.0898634C281.746 0.0698634 283.646 2.07986 283.616 7.41986C283.476 38.8799 283.416 70.3499 283.656 101.82C283.706 108.38 280.626 109.35 275.106 109.33C231.846 109.19 188.576 109.24 145.316 109.26C122.886 109.27 109.896 122.06 109.846 144.43C109.756 182.38 109.756 220.32 109.846 258.26C109.896 280.77 122.616 293.2 145.356 293.21C188.156 293.23 230.966 293.21 273.766 293.22C283.426 293.22 283.556 293.35 283.556 302.83C283.576 332.91 283.416 362.99 283.676 393.06C283.736 399.66 282.226 402.44 274.856 402.4C218.866 402.11 162.876 402.47 106.886 402.15C53.2559 401.85 8.17594 361.62 1.38594 308.42C0.445936 301.11 0.125936 293.67 0.0859357 286.29C-0.0540643 257.83 0.0259357 229.37 0.0259357 200.92V200.93Z" fill="#41ADE2"/>
<path d="M817.717 149.98C817.717 103.26 817.707 56.54 817.727 9.81002C817.727 0.270022 817.857 0.170022 827.457 0.170022C856.607 0.150022 885.747 0.170022 914.887 0.170022C923.297 0.170022 927.497 4.28002 927.497 12.5C927.497 93.92 927.497 175.34 927.497 256.76C927.497 262.31 927.387 267.85 929.567 273.16C934.667 285.56 946.007 293.19 960.087 293.21C1003.81 293.28 1047.52 293.23 1091.24 293.24C1101.21 293.24 1101.24 293.27 1101.24 303.34C1101.26 333.41 1101.1 363.48 1101.35 393.55C1101.4 400 1099.65 402.45 1092.77 402.42C1036.57 402.17 980.357 402.52 924.147 402.19C871.267 401.88 826.157 361.87 819.127 309.51C818.117 301.98 817.777 294.31 817.747 286.7C817.627 241.14 817.687 195.57 817.687 150L817.717 149.98Z" fill="#41ADE2"/>
<path d="M616.956 246.45V392.2C616.956 398.89 613.716 402.24 607.236 402.26C577.386 402.27 547.546 402.27 517.706 402.26C508.196 402.26 508.136 402.23 508.136 392.51C508.116 310.15 508.036 227.79 508.206 145.43C508.236 131.89 504.176 120.95 492.226 113.73C486.726 110.41 480.726 109.22 474.326 109.22C430.836 109.29 387.346 109.26 343.846 109.25C334.576 109.25 334.396 109.09 334.386 100.06C334.356 69.7598 334.556 39.4398 334.246 9.13984C334.176 2.16984 336.356 -0.0101644 343.366 0.0298356C398.886 0.279836 454.406 -0.0201644 509.936 0.229836C563.956 0.469836 609.236 40.3798 616.506 93.7898C617.066 97.8898 616.936 102.1 616.946 106.26C616.976 152.99 616.966 199.72 616.966 246.45H616.956Z" fill="#41ADE2"/>
<path d="M566.256 0.160156H756.276C763.286 0.160156 766.806 3.77016 766.816 10.9802C766.816 40.8202 766.616 70.6602 766.966 100.49C767.046 107.57 764.796 109.53 757.856 109.47C719.466 109.14 681.066 109.16 642.676 109.36C636.426 109.39 634.606 107.35 633.966 101.12C630.136 63.5402 613.226 33.0502 582.976 10.1902C577.856 6.32016 571.646 4.36016 566.266 0.160156H566.256Z" fill="#41ADE2"/>
<path d="M0.74 532.98C0.25 532.98 0 532.74 0 532.24V468.59C0 468.09 0.25 467.84 0.74 467.84H8.56C9.06 467.84 9.3 468.09 9.3 468.58V532.23C9.3 532.73 9.05 532.97 8.56 532.97H0.74V532.98Z" fill="#41ADE2"/>
<path d="M22.8005 532.981C22.3005 532.981 22.0605 532.731 22.0605 532.241V468.591C22.0605 468.091 22.3105 467.851 22.8005 467.851H28.8505C29.2805 467.851 29.5605 468.011 29.6905 468.321L57.9805 512.711V468.601C57.9805 468.101 58.2306 467.861 58.7206 467.861H66.5406C67.0406 467.861 67.2805 468.111 67.2805 468.601V532.251C67.2805 532.751 67.0306 532.991 66.5406 532.991H60.5806C60.2106 532.991 59.9305 532.841 59.7405 532.521L31.3605 488.131V532.241C31.3605 532.741 31.1105 532.981 30.6205 532.981H22.8005Z" fill="#41ADE2"/>
<path d="M80.6795 532.981C80.1795 532.981 79.9395 532.731 79.9395 532.241V468.591C79.9395 468.091 80.1895 467.851 80.6795 467.851H118.279C118.779 467.851 119.019 468.101 119.019 468.591V476.411C119.019 476.911 118.769 477.151 118.279 477.151H89.2495V495.301H117.349C117.849 495.301 118.089 495.551 118.089 496.041V502.931C118.089 503.431 117.839 503.671 117.349 503.671H89.2495V532.241C89.2495 532.741 88.9995 532.981 88.5095 532.981H80.6895H80.6795Z" fill="#41ADE2"/>
<path d="M151.681 533.91C144.481 533.91 138.901 531.71 134.931 527.3C130.961 522.9 128.971 516.88 128.971 509.25V491.48C128.971 483.79 130.971 477.77 134.971 473.43C138.971 469.09 144.541 466.92 151.671 466.92C158.801 466.92 164.341 469.12 168.281 473.53C172.221 477.94 174.191 483.92 174.191 491.49V509.26C174.191 516.95 172.201 522.99 168.231 527.36C164.261 531.73 158.741 533.92 151.671 533.92L151.681 533.91ZM151.681 524.61C160.491 524.61 164.891 519.49 164.891 509.26V491.49C164.891 481.32 160.481 476.23 151.681 476.23C142.881 476.23 138.281 481.32 138.281 491.49V509.26C138.281 519.5 142.751 524.61 151.681 524.61Z" fill="#41ADE2"/>
<path d="M186.67 532.981C186.17 532.981 185.93 532.731 185.93 532.241V468.591C185.93 468.091 186.18 467.851 186.67 467.851H208.63C215.64 467.851 221.15 469.661 225.15 473.291C229.15 476.921 231.15 481.991 231.15 488.511C231.15 494.221 229.57 498.821 226.4 502.331C223.24 505.841 218.77 507.991 213 508.801L230.49 532.061C230.92 532.681 230.77 532.991 230.02 532.991H220.06C219.63 532.991 219.32 532.841 219.13 532.521L201.54 509.071H195.21V532.241C195.21 532.741 194.96 532.981 194.47 532.981H186.65H186.67ZM195.23 499.761H208.63C217.44 499.761 221.84 496.011 221.84 488.501C221.84 480.991 217.43 477.151 208.63 477.151H195.23V499.761Z" fill="#41ADE2"/>
<path d="M242.689 532.981C242.189 532.981 241.949 532.731 241.949 532.241V468.591C241.949 468.091 242.199 467.851 242.689 467.851H249.019C249.449 467.851 249.759 468.041 249.949 468.411L272.559 517.261L295.169 468.411C295.359 468.041 295.669 467.851 296.099 467.851H302.429C302.929 467.851 303.169 468.101 303.169 468.591V532.241C303.169 532.741 302.919 532.981 302.429 532.981H294.609C294.109 532.981 293.869 532.731 293.869 532.241V493.441L275.819 532.431C275.629 532.801 275.319 532.991 274.889 532.991H270.239C269.809 532.991 269.499 532.801 269.309 532.431L251.259 493.441V532.241C251.259 532.741 251.009 532.981 250.519 532.981H242.699H242.689Z" fill="#41ADE2"/>
<path d="M352.03 532.98C351.53 532.98 351.25 532.79 351.19 532.42L346.26 518.55H323.18L318.25 532.42C318.19 532.79 317.91 532.98 317.41 532.98H309.31C308.63 532.98 308.41 532.7 308.66 532.14L331.46 468.4C331.52 468.03 331.8 467.84 332.3 467.84H337.32C337.82 467.84 338.09 468.03 338.16 468.4L360.96 532.14C361.21 532.7 360.99 532.98 360.31 532.98H352.03ZM325.97 510.93H343.46L334.71 486.27L325.96 510.93H325.97Z" fill="#41ADE2"/>
<path d="M376.689 532.981C376.189 532.981 375.949 532.731 375.949 532.241V477.151H355.939C355.439 477.151 355.199 476.901 355.199 476.411V468.591C355.199 468.091 355.449 467.851 355.939 467.851H405.069C405.569 467.851 405.809 468.101 405.809 468.591V476.411C405.809 476.911 405.559 477.151 405.069 477.151H385.249V532.241C385.249 532.741 384.999 532.981 384.509 532.981H376.689Z" fill="#41ADE2"/>
<path d="M413.349 532.981C412.849 532.981 412.609 532.731 412.609 532.241V468.591C412.609 468.091 412.859 467.851 413.349 467.851H421.169C421.669 467.851 421.909 468.101 421.909 468.591V532.241C421.909 532.741 421.659 532.981 421.169 532.981H413.349Z" fill="#41ADE2"/>
<path d="M456.44 533.91C449.24 533.91 443.66 531.71 439.69 527.3C435.72 522.9 433.73 516.88 433.73 509.25V491.48C433.73 483.79 435.73 477.77 439.73 473.43C443.73 469.09 449.3 466.92 456.43 466.92C463.56 466.92 469.1 469.12 473.04 473.53C476.98 477.94 478.95 483.92 478.95 491.49V509.26C478.95 516.95 476.96 522.99 472.99 527.36C469.02 531.73 463.5 533.92 456.43 533.92L456.44 533.91ZM456.44 524.61C465.25 524.61 469.65 519.49 469.65 509.26V491.49C469.65 481.32 465.24 476.23 456.44 476.23C447.64 476.23 443.04 481.32 443.04 491.49V509.26C443.04 519.5 447.51 524.61 456.44 524.61Z" fill="#41ADE2"/>
<path d="M491.429 532.981C490.929 532.981 490.689 532.731 490.689 532.241V468.591C490.689 468.091 490.939 467.851 491.429 467.851H497.479C497.909 467.851 498.189 468.011 498.319 468.321L526.609 512.711V468.601C526.609 468.101 526.859 467.861 527.349 467.861H535.169C535.669 467.861 535.909 468.111 535.909 468.601V532.251C535.909 532.751 535.659 532.991 535.169 532.991H529.209C528.839 532.991 528.559 532.841 528.369 532.521L499.989 488.131V532.241C499.989 532.741 499.739 532.981 499.249 532.981H491.429Z" fill="#41ADE2"/>
<path d="M588.39 532.981C587.89 532.981 587.65 532.731 587.65 532.241V477.151H567.64C567.14 477.151 566.9 476.901 566.9 476.411V468.591C566.9 468.091 567.15 467.851 567.64 467.851H616.77C617.27 467.851 617.51 468.101 617.51 468.591V476.411C617.51 476.911 617.26 477.151 616.77 477.151H596.95V532.241C596.95 532.741 596.7 532.981 596.21 532.981H588.39Z" fill="#41ADE2"/>
<path d="M625.051 532.981C624.551 532.981 624.311 532.731 624.311 532.241V468.591C624.311 468.091 624.561 467.851 625.051 467.851H662.651C663.151 467.851 663.391 468.101 663.391 468.591V476.411C663.391 476.911 663.141 477.151 662.651 477.151H633.621V495.201H662.651C663.151 495.201 663.391 495.451 663.391 495.941V502.921C663.391 503.421 663.141 503.661 662.651 503.661H633.621V523.671H662.651C663.151 523.671 663.391 523.921 663.391 524.411V532.231C663.391 532.731 663.141 532.971 662.651 532.971H625.051V532.981Z" fill="#41ADE2"/>
<path d="M696.059 533.91C689.299 533.91 683.979 531.69 680.099 527.26C676.219 522.82 674.279 516.82 674.279 509.25V491.48C674.279 483.85 676.229 477.85 680.139 473.47C684.049 469.1 689.349 466.91 696.049 466.91C702.379 466.91 707.389 468.51 711.079 471.7C714.769 474.9 716.709 479.6 716.899 485.8C716.899 486.3 716.649 486.54 716.159 486.54H708.339C707.839 486.54 707.599 486.29 707.599 485.8C707.289 479.41 703.439 476.21 696.059 476.21C687.749 476.21 683.589 481.3 683.589 491.47V509.24C683.589 519.48 687.749 524.59 696.059 524.59C703.439 524.59 707.319 521.36 707.689 514.91C707.689 514.41 707.939 514.17 708.429 514.17H716.249C716.749 514.17 716.989 514.42 716.989 514.91C716.799 521.18 714.879 525.91 711.219 529.1C707.559 532.3 702.499 533.89 696.049 533.89L696.059 533.91Z" fill="#41ADE2"/>
<path d="M727.689 532.981C727.189 532.981 726.949 532.731 726.949 532.241V468.591C726.949 468.091 727.199 467.851 727.689 467.851H735.509C736.009 467.851 736.249 468.101 736.249 468.591V495.301H762.869V468.591C762.869 468.091 763.119 467.851 763.609 467.851H771.429C771.929 467.851 772.169 468.101 772.169 468.591V532.241C772.169 532.741 771.919 532.981 771.429 532.981H763.609C763.109 532.981 762.869 532.731 762.869 532.241V503.671H736.249V532.241C736.249 532.741 735.999 532.981 735.509 532.981H727.689Z" fill="#41ADE2"/>
<path d="M785.58 532.981C785.08 532.981 784.84 532.731 784.84 532.241V468.591C784.84 468.091 785.09 467.851 785.58 467.851H791.63C792.06 467.851 792.34 468.011 792.47 468.321L820.76 512.711V468.601C820.76 468.101 821.01 467.861 821.5 467.861H829.32C829.82 467.861 830.06 468.111 830.06 468.601V532.251C830.06 532.751 829.81 532.991 829.32 532.991H823.36C822.99 532.991 822.71 532.841 822.52 532.521L794.14 488.131V532.241C794.14 532.741 793.89 532.981 793.4 532.981H785.58Z" fill="#41ADE2"/>
<path d="M864.489 533.91C857.289 533.91 851.709 531.71 847.739 527.3C843.769 522.9 841.779 516.88 841.779 509.25V491.48C841.779 483.79 843.779 477.77 847.779 473.43C851.779 469.09 857.349 466.92 864.479 466.92C871.609 466.92 877.149 469.12 881.089 473.53C885.029 477.94 886.999 483.92 886.999 491.49V509.26C886.999 516.95 885.009 522.99 881.039 527.36C877.069 531.73 871.549 533.92 864.479 533.92L864.489 533.91ZM864.489 524.61C873.299 524.61 877.699 519.49 877.699 509.26V491.49C877.699 481.32 873.289 476.23 864.489 476.23C855.689 476.23 851.089 481.32 851.089 491.49V509.26C851.089 519.5 855.559 524.61 864.489 524.61Z" fill="#41ADE2"/>
<path d="M899.48 532.981C898.98 532.981 898.74 532.731 898.74 532.241V468.591C898.74 468.091 898.99 467.851 899.48 467.851H907.3C907.8 467.851 908.04 468.101 908.04 468.591V523.681H936.61C937.11 523.681 937.35 523.931 937.35 524.421V532.241C937.35 532.741 937.1 532.981 936.61 532.981H899.48Z" fill="#41ADE2"/>
<path d="M965.921 533.91C958.721 533.91 953.141 531.71 949.171 527.3C945.201 522.9 943.211 516.88 943.211 509.25V491.48C943.211 483.79 945.211 477.77 949.211 473.43C953.211 469.09 958.781 466.92 965.911 466.92C973.041 466.92 978.581 469.12 982.521 473.53C986.461 477.94 988.431 483.92 988.431 491.49V509.26C988.431 516.95 986.441 522.99 982.471 527.36C978.501 531.73 972.981 533.92 965.911 533.92L965.921 533.91ZM965.921 524.61C974.731 524.61 979.131 519.49 979.131 509.26V491.49C979.131 481.32 974.721 476.23 965.921 476.23C957.121 476.23 952.521 481.32 952.521 491.49V509.26C952.521 519.5 956.991 524.61 965.921 524.61Z" fill="#41ADE2"/>
<path d="M1020.08 533.91C1013.75 533.91 1008.7 531.69 1004.91 527.26C1001.12 522.82 999.23 516.82 999.23 509.25V491.48C999.23 483.73 1001.23 477.69 1005.23 473.38C1009.23 469.07 1014.92 466.91 1022.31 466.91C1028.45 466.91 1033.35 468.51 1037.01 471.7C1040.67 474.9 1042.59 479.6 1042.78 485.8C1042.78 486.3 1042.53 486.54 1042.04 486.54H1034.22C1033.72 486.54 1033.48 486.29 1033.48 485.8C1033.17 479.41 1029.39 476.21 1022.13 476.21C1013.07 476.21 1008.54 481.3 1008.54 491.47V509.24C1008.54 519.48 1013.01 524.59 1021.94 524.59C1030.87 524.59 1035.15 519.47 1035.15 509.24V504.31H1021.84C1021.34 504.31 1021.1 504.06 1021.1 503.57V497.43C1021.1 496.93 1021.35 496.69 1021.84 496.69H1033.94C1037.91 496.69 1040.65 497.43 1042.18 498.92C1043.7 500.41 1044.46 503.17 1044.46 507.2V532.23C1044.46 532.73 1044.21 532.97 1043.72 532.97H1035.9C1035.4 532.97 1035.16 532.72 1035.16 532.23V525.62H1034.69C1031.59 531.14 1026.72 533.9 1020.08 533.9V533.91Z" fill="#41ADE2"/>
<path d="M1072.28 532.98C1071.78 532.98 1071.54 532.73 1071.54 532.24V509.44L1051.16 468.68C1050.85 468.12 1051.04 467.84 1051.72 467.84H1060.47C1060.9 467.84 1061.21 468.03 1061.4 468.4L1076.2 497.99L1091 468.4C1091.19 468.03 1091.5 467.84 1091.93 467.84H1100.68C1101.36 467.84 1101.55 468.12 1101.24 468.68L1080.86 509.44V532.24C1080.86 532.74 1080.61 532.98 1080.12 532.98H1072.3H1072.28Z" fill="#41ADE2"/>
</svg>
